<svg width="96" height="96" viewBox="0 0 96 96" fill="none" xmlns="http://www.w3.org/2000/svg">
<rect x="0.0625" y="0.0375977" width="95" height="95" rx="47.5" fill="#BA9FB7"/>
<path d="M38.1079 42.7456C38.1079 41.916 37.4292 41.2373 36.5997 41.2373H24.5083C23.6787 41.2373 23 41.916 23 42.7456C23 43.5751 23.6787 44.2539 24.5083 44.2539H36.5997C37.4292 44.2539 38.1079 43.5751 38.1079 42.7456Z" fill="white"/>
<path d="M71.1393 41.2373H59.048C58.2184 41.2373 57.5397 41.916 57.5397 42.7456C57.5397 43.5751 58.2184 44.2539 59.048 44.2539H71.1393C71.9689 44.2539 72.6476 43.5751 72.6476 42.7456C72.6476 41.916 71.9815 41.2373 71.1393 41.2373Z" fill="white"/>
<path d="M47.8238 33.0298C48.6534 33.0298 49.3321 32.3511 49.3321 31.5215V19.4302C49.3321 18.6006 48.6534 17.9219 47.8238 17.9219C46.9943 17.9219 46.3156 18.6006 46.3156 19.4302V31.5215C46.3156 32.3511 46.9943 33.0298 47.8238 33.0298Z" fill="white"/>
<path d="M55.7548 36.3228C56.1445 36.3228 56.5215 36.172 56.8232 35.8829L65.3827 27.3234C65.9734 26.7327 65.9734 25.7775 65.3827 25.1867C64.792 24.596 63.8367 24.596 63.246 25.1867L54.6865 33.7462C54.0957 34.3369 54.0957 35.2922 54.6865 35.8829C54.9881 36.172 55.3778 36.3228 55.7548 36.3228Z" fill="white"/>
<path d="M38.8244 35.8829C39.1135 36.172 39.5031 36.3228 39.8928 36.3228C40.2824 36.3228 40.6595 36.172 40.9611 35.8829C41.5519 35.2922 41.5519 34.3369 40.9611 33.7462L32.4016 25.1867C31.8109 24.596 30.8556 24.596 30.2649 25.1867C29.6742 25.7775 29.6742 26.7327 30.2649 27.3234L38.8244 35.8829Z" fill="white"/>
<path d="M65.9483 52.2602C64.8046 51.2799 63.3591 50.7394 61.8886 50.7394H60.5185H55.5915H53.2536V44.6434C53.2536 41.7274 52.3864 39.6032 50.6644 38.3338C47.9495 36.3479 44.2668 37.4665 44.1034 37.5168C43.475 37.7179 43.0476 38.2961 43.0476 38.9497V46.3025C43.0476 48.5398 41.9792 50.4377 39.8551 51.9586C38.2462 53.1149 36.5997 53.6428 36.386 53.7057L36.2352 53.7434C35.6696 53.1024 34.84 52.7002 33.9099 52.7002H28.1785C26.4691 52.7002 25.0739 54.0953 25.0739 55.8047V74.608C25.0739 76.3173 26.4691 77.7125 28.1785 77.7125H33.9351C34.6892 77.7125 35.3931 77.436 35.921 76.9835C37.0773 78.1147 38.6484 78.806 40.3453 78.806H46.0642H46.6549H58.3567C60.1666 78.806 61.7629 78.3661 62.9821 77.5491C64.5406 76.4933 65.5084 74.8216 65.7849 72.6849L68.1102 58.2305C68.4747 55.9932 67.6452 53.7057 65.9483 52.2602ZM34.0231 74.608C34.0231 74.6582 33.9853 74.6959 33.9351 74.6959H28.1785C28.1282 74.6959 28.0905 74.6582 28.0905 74.608V55.8047C28.0905 55.7544 28.1282 55.7167 28.1785 55.7167H33.9351C33.9853 55.7167 34.0231 55.7544 34.0231 55.8047V74.608ZM65.1314 57.7655L62.8061 72.245C62.8061 72.2575 62.8061 72.2827 62.7935 72.3078C62.693 73.1751 62.3662 75.802 58.3567 75.802H46.6549H46.0642H40.3453C38.7364 75.802 37.3287 74.5954 37.0773 72.9991C37.0648 72.9363 37.0522 72.8734 37.0396 72.8232V56.6594L37.1276 56.6343C37.1527 56.6343 37.1653 56.6217 37.1904 56.6217C37.2784 56.5966 39.4152 55.9932 41.5393 54.4724C44.493 52.3734 46.0642 49.5453 46.0642 46.3025V40.194C46.8937 40.106 48.0375 40.1437 48.8796 40.7596C49.7846 41.4258 50.2371 42.7329 50.2371 44.6309V52.2351C50.2371 53.0647 50.9158 53.7434 51.7454 53.7434H55.5915H60.5185H61.8886C62.6427 53.7434 63.3843 54.0325 63.9876 54.5352C64.8925 55.3145 65.3199 56.5463 65.1314 57.7655Z" fill="white"/>
</svg>
