<svg width="95" height="96" viewBox="0 0 95 96" fill="none" xmlns="http://www.w3.org/2000/svg">
<rect y="0.921875" width="95" height="95" rx="47.5" fill="#BA9FB7"/>
<path d="M58.1537 50.7793H51.6216C49.8339 50.7793 48.3801 52.2331 48.3801 54.0208V59.0304C48.3801 60.8182 49.8339 62.2719 51.6216 62.2719H58.1537C59.9415 62.2719 61.3952 60.8182 61.3952 59.0304V54.0208C61.3952 52.2331 59.9415 50.7793 58.1537 50.7793ZM59.0378 59.0304C59.0378 59.5216 58.6351 59.9145 58.1537 59.9145H51.6216C51.1305 59.9145 50.7376 59.5117 50.7376 59.0304V54.0208C50.7376 53.5297 51.1403 53.1368 51.6216 53.1368H58.1537C58.6449 53.1368 59.0378 53.5395 59.0378 54.0208V59.0304Z" fill="white"/>
<path d="M72.0726 41.6737C72.0726 41.4675 72.0235 41.271 71.9154 41.0942L64.7645 28.5211C64.5582 28.1576 64.1653 27.9219 63.7429 27.9219H32.3199C31.8975 27.9219 31.5046 28.1478 31.2983 28.5211L24.1572 41.0942C24.0589 41.271 24 41.4675 24 41.6737C24 44.4929 25.6993 46.9093 28.1256 47.98V68.7158C28.1256 69.3641 28.656 69.8945 29.3043 69.8945H35.8168C35.8266 69.8945 35.8364 69.8945 35.8462 69.8945H44.9814C44.9912 69.8945 45.0011 69.8945 45.0109 69.8945H66.7585C67.4068 69.8945 67.9372 69.3641 67.9372 68.7158V48.1273C67.9372 48.0782 67.9372 48.0389 67.9274 47.9996C70.3634 46.9289 72.0726 44.5027 72.0726 41.6737ZM33.0075 30.2892H63.0553L68.6444 40.1217H27.4281L33.0075 30.2892ZM58.2127 42.4694C57.8394 44.5911 55.9829 46.202 53.7531 46.202C51.5234 46.202 49.6669 44.5911 49.2936 42.4694H58.2127ZM46.7888 42.4694C46.4155 44.5911 44.559 46.202 42.3293 46.202C40.0995 46.202 38.243 44.5911 37.8599 42.4694H46.7888ZM26.436 42.4694H35.3649C34.9917 44.5911 33.1253 46.202 30.8956 46.202C28.6658 46.2119 26.8093 44.5911 26.436 42.4694ZM43.8027 67.5371H37.025V54.8166C37.025 53.8933 37.7715 53.1369 38.7047 53.1369H42.1328C43.0562 53.1369 43.8125 53.8834 43.8125 54.8166V67.5371H43.8027ZM65.5797 67.5371H46.1601V54.8166C46.1601 52.5967 44.3528 50.7794 42.123 50.7794H38.6948C36.4749 50.7794 34.6577 52.5868 34.6577 54.8166V67.5469H30.483V48.5595C30.6205 48.5693 30.7581 48.5693 30.8956 48.5693C33.2727 48.5693 35.3748 47.3611 36.6124 45.5243C37.8501 47.3611 39.9522 48.5693 42.3293 48.5693C44.7064 48.5693 46.7986 47.3611 48.0461 45.5243C49.2838 47.3611 51.3859 48.5693 53.7531 48.5693C56.1302 48.5693 58.2225 47.3611 59.4602 45.5243C60.6978 47.3611 62.7999 48.5693 65.177 48.5693C65.3145 48.5693 65.4422 48.5595 65.5797 48.5595V67.5371ZM65.177 46.2119C62.9472 46.2119 61.0907 44.6009 60.7175 42.4792H69.6464C69.2633 44.5911 67.4068 46.2119 65.177 46.2119Z" fill="white"/>
</svg>
