<svg width="95" height="96" viewBox="0 0 95 96" fill="none" xmlns="http://www.w3.org/2000/svg">
<rect y="0.921875" width="95" height="95" rx="47.5" fill="#BA9FB7"/>
<path d="M74.9222 40.2697C73.3426 38.5584 71.0927 37.613 68.5916 37.613H62.5722V34.3579C62.5722 33.5681 61.926 32.9219 61.1361 32.9219H32.463C31.6732 32.9219 31.0269 33.5681 31.0269 34.3579V39.3602H25.4383C24.6485 39.3602 24.0023 40.0064 24.0023 40.7962C24.0023 41.586 24.6485 42.2323 25.4383 42.2323H32.4271C32.4391 42.2323 32.451 42.2323 32.463 42.2323C32.463 42.2323 32.463 42.2323 32.475 42.2323C33.2648 42.2323 33.911 41.586 33.911 40.7962V35.794H59.7121V39.049V58.3041H46.1892C46.1294 58.3041 46.0696 58.3041 46.0097 58.316C45.2917 56.5449 43.5565 55.2884 41.534 55.2884C39.4996 55.2884 37.7644 56.5569 37.0583 58.34C36.9506 58.316 36.8549 58.3041 36.7472 58.3041H33.911V53.2899C33.911 52.5 33.2648 51.8538 32.475 51.8538C32.451 51.8538 32.4271 51.8538 32.4032 51.8538C32.3792 51.8538 32.3673 51.8538 32.3433 51.8538H25.4383C24.6485 51.8538 24.0023 52.5 24.0023 53.2899C24.0023 54.0797 24.6485 54.7259 25.4383 54.7259H31.0269V59.7282C31.0269 60.518 31.6732 61.1642 32.463 61.1642H36.7352C36.7711 61.1642 36.7951 61.1642 36.831 61.1642C37.3097 63.3183 39.2364 64.9219 41.534 64.9219C43.8317 64.9219 45.7465 63.3183 46.2371 61.1642H61.1481H63.4458C63.9364 63.3063 65.8512 64.9219 68.1488 64.9219C70.4465 64.9219 72.3613 63.3183 72.8519 61.1642H76.0591C76.8489 61.1642 77.4951 60.518 77.4951 59.7282V47.797C77.4951 44.6975 76.5976 42.0887 74.9222 40.2697ZM41.534 62.0617C40.457 62.0617 39.5834 61.1881 39.5834 60.1111C39.5834 59.0341 40.457 58.1605 41.534 58.1605C42.6111 58.1605 43.4847 59.0341 43.4847 60.1111C43.4847 61.1881 42.6111 62.0617 41.534 62.0617ZM68.1488 62.0617C67.0718 62.0617 66.1982 61.1881 66.1982 60.1111C66.1982 59.0341 67.0718 58.1605 68.1488 58.1605C69.2259 58.1605 70.0995 59.0341 70.0995 60.1111C70.0875 61.1881 69.2139 62.0617 68.1488 62.0617ZM74.623 58.3041H72.6126C71.8945 56.5449 70.1593 55.2884 68.1488 55.2884C66.1384 55.2884 64.4031 56.5329 63.6851 58.3041H62.5842V40.4851H68.6036C72.3732 40.4851 74.623 43.2255 74.623 47.8089V58.3041Z" fill="white"/>
<path d="M43.6642 49.7357C43.1017 50.2981 43.1017 51.2076 43.6642 51.7701C43.9394 52.0453 44.3104 52.1889 44.6814 52.1889C45.0524 52.1889 45.4114 52.0453 45.6986 51.7701L49.3964 48.0722L49.4084 48.0603C49.4323 48.0244 49.4682 48.0004 49.4921 47.9645C49.5041 47.9406 49.5161 47.9286 49.528 47.9047C49.54 47.8808 49.552 47.8688 49.5759 47.8449C49.5879 47.8209 49.5998 47.797 49.6118 47.7731C49.6238 47.7491 49.6357 47.7372 49.6477 47.7132C49.6597 47.6893 49.6716 47.6654 49.6836 47.6414C49.6956 47.6175 49.7076 47.6055 49.7076 47.5816C49.7195 47.5577 49.7195 47.5337 49.7315 47.5098C49.7434 47.4859 49.7435 47.4619 49.7554 47.45C49.7674 47.426 49.7674 47.4021 49.7674 47.3782C49.7674 47.3542 49.7794 47.3303 49.7794 47.3064C49.7794 47.2824 49.7913 47.2585 49.7913 47.2226C49.7913 47.1986 49.8033 47.1867 49.8033 47.1627C49.8153 47.067 49.8153 46.9713 49.8033 46.8755C49.8033 46.8516 49.8033 46.8396 49.7913 46.8157C49.7913 46.7918 49.7794 46.7678 49.7794 46.7319C49.7794 46.708 49.7674 46.6841 49.7674 46.6601C49.7674 46.6362 49.7554 46.6123 49.7554 46.5883C49.7435 46.5644 49.7434 46.5405 49.7315 46.5285C49.7195 46.5046 49.7195 46.4806 49.7076 46.4567C49.6956 46.4328 49.6836 46.4208 49.6836 46.3969C49.6716 46.3729 49.6597 46.349 49.6477 46.3251C49.6357 46.3011 49.6238 46.2892 49.6118 46.2652C49.5998 46.2413 49.5879 46.2174 49.5759 46.1934C49.5639 46.1695 49.552 46.1575 49.528 46.1336C49.5161 46.1096 49.5041 46.0977 49.4921 46.0737C49.4682 46.0378 49.4323 46.0139 49.4084 45.978L49.3964 45.966L45.8781 42.4477C45.3156 41.8853 44.4061 41.8853 43.8437 42.4477C43.2812 43.0102 43.2812 43.9197 43.8437 44.4821L44.9087 45.5472H20.4361C19.6462 45.5472 19 46.1934 19 46.9832C19 47.7731 19.6462 48.4193 20.4361 48.4193H44.8968L43.6642 49.7357Z" fill="white"/>
</svg>
